<?xml version="1.0" encoding="UTF-8" standalone="no"?>
<!-- Created with Inkscape (http://www.inkscape.org/) -->

<svg
   id="svg2"
   sodipodi:docname="refresh-mirrors.svg"
   viewBox="0 0 302 302"
   version="1.1"
   inkscape:version="1.1 (c4e8f9ed74, 2021-05-24)"
   inkscape:export-filename="/run/media/shivanandvp/DATA/Development/RebornOS/refresh-mirrors/refresh-mirrors.png"
   inkscape:export-xdpi="75"
   inkscape:export-ydpi="75"
   xmlns:inkscape="http://www.inkscape.org/namespaces/inkscape"
   xmlns:sodipodi="http://sodipodi.sourceforge.net/DTD/sodipodi-0.dtd"
   xmlns:xlink="http://www.w3.org/1999/xlink"
   xmlns="http://www.w3.org/2000/svg"
   xmlns:svg="http://www.w3.org/2000/svg"
   xmlns:rdf="http://www.w3.org/1999/02/22-rdf-syntax-ns#"
   xmlns:cc="http://creativecommons.org/ns#"
   xmlns:dc="http://purl.org/dc/elements/1.1/">
  <defs
     id="defs13">
    <linearGradient
       id="linearGradient4873">
      <stop
         id="stop4875"
         style="stop-color:white"
         offset="0" />
      <stop
         id="stop4877"
         style="stop-color:white;stop-opacity:0"
         offset="1" />
    </linearGradient>
    <linearGradient
       id="linearGradient2861"
       y2="22.6"
       gradientUnits="userSpaceOnUse"
       x2="15.373"
       gradientTransform="matrix(0.95437,0,0,0.95437,0.4933,2.8946)"
       y1="5.0472"
       x1="15.373">
      <stop
         id="stop3535"
         style="stop-color:#93b9dd"
         offset="0" />
      <stop
         id="stop3545"
         style="stop-color:#6396cd"
         offset="1" />
    </linearGradient>
    <radialGradient
       id="radialGradient2864"
       gradientUnits="userSpaceOnUse"
       cy="4.625"
       cx="62.625"
       gradientTransform="matrix(2.1499,0,0,0.87466,-110.64,34.661)"
       r="10.625">
      <stop
         id="stop8840"
         style="stop-color:black"
         offset="0" />
      <stop
         id="stop8842"
         style="stop-color:black;stop-opacity:0"
         offset="1" />
    </radialGradient>
    <linearGradient
       id="linearGradient2850"
       y2="19.948"
       xlink:href="#linearGradient4873"
       gradientUnits="userSpaceOnUse"
       x2="10.512"
       gradientTransform="matrix(0.95437,0,0,0.95437,0.4933,2.8946)"
       y1="10.677"
       x1="35.233"
       inkscape:collect="always" />
    <linearGradient
       id="linearGradient3684"
       y2="19.948"
       xlink:href="#linearGradient4873"
       gradientUnits="userSpaceOnUse"
       x2="10.512"
       gradientTransform="matrix(-0.95437,0,0,-0.95437,46.382,44.602)"
       y1="10.677"
       x1="35.233"
       inkscape:collect="always" />
    <linearGradient
       id="linearGradient3687"
       y2="22.6"
       gradientUnits="userSpaceOnUse"
       x2="15.373"
       gradientTransform="matrix(-0.95437,0,0,-0.95437,46.382,44.602)"
       y1="5.0472"
       x1="15.373"
       inkscape:collect="always">
      <stop
         id="stop3691"
         style="stop-color:#d7e866"
         offset="0" />
      <stop
         id="stop3693"
         style="stop-color:#8cab2a"
         offset="1" />
    </linearGradient>
  </defs>
  <sodipodi:namedview
     id="base"
     bordercolor="#666666"
     inkscape:pageshadow="2"
     inkscape:window-y="0"
     pagecolor="#ffffff"
     inkscape:window-height="988"
     inkscape:window-maximized="1"
     inkscape:zoom="1.979899"
     inkscape:window-x="0"
     showgrid="false"
     borderopacity="1.0"
     inkscape:current-layer="layer1"
     inkscape:cx="126.01653"
     inkscape:cy="139.14851"
     inkscape:window-width="1920"
     inkscape:pageopacity="0.0"
     inkscape:document-units="px"
     inkscape:pagecheckerboard="0" />
  <g
     id="layer1"
     inkscape:label="Layer 1"
     inkscape:groupmode="layer"
     transform="translate(0 -750.36)">
    <g
       id="g1720"
       transform="matrix(1.1283542,0,0,1.1283542,-19.21605,-119.23791)">
      <path
         id="rect2998"
         style="fill:#ffffff;stroke:#000000;stroke-width:3;stroke-miterlimit:4;stroke-dasharray:none;stroke-opacity:1"
         d="M 202.07617,66 A 66.425786,66.429427 0 0 0 143.24219,101.92578 47.857114,47.857199 0 0 0 117.78711,94.578125 47.857114,47.857199 0 0 0 70.558594,136.05664 50.000143,49.999856 0 0 0 21.355469,186 a 50.000143,49.999856 0 0 0 50,50 50.000143,49.999856 0 0 0 4.24414,-0.45508 c 1.434938,0.20962 2.888604,0.35547 4.378907,0.35547 H 249.32227 c 17.70147,0 31.95117,-15.27353 31.95117,-34.24609 0,-15.84032 -9.94729,-29.06644 -23.5293,-33.01368 A 66.425786,66.429427 0 0 0 268.50195,132.42969 66.425786,66.429427 0 0 0 202.07617,66 Z"
         transform="translate(0,750.36)" />
      <g
         id="g1070"
         transform="matrix(2.9030548,0,0,2.9030548,84.09901,848.65278)">
        <path
           id="path8836"
           style="opacity:0.56044;fill:url(#radialGradient2864);fill-rule:evenodd"
           d="m 46.842,38.707 a 22.8425,9.2935034 0 0 1 -45.685,0 22.8425,9.2935034 0 1 1 45.685,0 z" />
        <g
           id="g3669">
          <path
             id="path3372"
             style="fill:url(#linearGradient2861);stroke:#387ab8;stroke-linejoin:round"
             d="M 23.531,4.5 C 13.683,4.8989 5.84,12.515 4.625,22.156 H 15.25 c 1.058,-3.926 4.851,-6.983 9.031,-6.937 2.364,0.026 4.646,0.799 6.344,2.437 l -4.406,4.063 H 42.25 V 5.906 l -4.219,4.219 C 34.323,6.481 30.035,4.5602 24.562,4.5 24.215,4.4962 23.875,4.4861 23.531,4.5 Z" />
          <path
             id="path3370"
             sodipodi:nodetypes="csccccccc"
             style="opacity:0.4;fill:none;stroke:url(#linearGradient2850);stroke-width:1.193"
             d="m 14.219,21.75 c 1.2893,-4.2881 5.5889,-7.7538 10.125,-7.6875 2.6731,0.03908 5.955,1.1919 7.9688,3.4688 l -3.2188,3.0625 12.062,0.03125 V 8.56305 L 38,11.78125 c -3.542,-3.9506 -8.053,-5.9756 -13.594,-6.031 -9.609,-0.0962 -17.172,6.815 -18.562,16" />
        </g>
        <path
           id="path3675"
           style="fill:url(#linearGradient3687);stroke:#42770c;stroke-linejoin:round"
           d="M 23.344,42.997 C 33.192,42.598 41.035,34.982 42.25,25.34 H 31.625 c -1.0577,3.9266 -4.8512,6.9835 -9.0312,6.9375 C 20.2299,32.25148 17.9478,31.47779 16.25,29.84 l 4.4062,-4.0625 H 4.6252 v 15.812 L 8.844,37.3707 c 3.7082,3.644 7.9959,5.5648 13.469,5.625 0.34792,0.0038 0.68793,0.01391 1.0312,0 z" />
        <path
           id="path3677"
           sodipodi:nodetypes="csccccccc"
           style="opacity:0.4;fill:none;stroke:url(#linearGradient3684);stroke-width:1.193"
           d="m 32.656,25.747 c -1.2893,4.2881 -5.5889,7.7538 -10.125,7.6875 -2.6731,-0.03908 -5.955,-1.1919 -7.9688,-3.4688 L 17.781,26.9032 5.719,26.87195 v 12.062 l 3.1562,-3.2188 c 3.542,3.9509 8.0533,5.9758 13.594,6.0312 9.6095,0.09616 17.172,-6.8151 18.562,-16" />
      </g>
    </g>
  </g>
  <metadata
     id="metadata10">
    <rdf:RDF>
      <cc:Work>
        <dc:format>image/svg+xml</dc:format>
        <dc:type
           rdf:resource="http://purl.org/dc/dcmitype/StillImage" />
        <cc:license
           rdf:resource="http://creativecommons.org/publicdomain/zero/1.0/" />
        <dc:publisher>
          <cc:Agent
             rdf:about="http://openclipart.org/">
            <dc:title>Openclipart</dc:title>
          </cc:Agent>
        </dc:publisher>
      </cc:Work>
      <cc:License
         rdf:about="http://creativecommons.org/publicdomain/zero/1.0/">
        <cc:permits
           rdf:resource="http://creativecommons.org/ns#Reproduction" />
        <cc:permits
           rdf:resource="http://creativecommons.org/ns#Distribution" />
        <cc:permits
           rdf:resource="http://creativecommons.org/ns#DerivativeWorks" />
      </cc:License>
    </rdf:RDF>
  </metadata>
</svg>
